<!DOCTYPE svg PUBLIC "-//W3C//DTD SVG 20010904//EN" "http://www.w3.org/TR/2001/REC-SVG-20010904/DTD/svg10.dtd">
<svg version="1.0" xmlns="http://www.w3.org/2000/svg" width="752px" height="458px" viewBox="0 0 7520 4580" preserveAspectRatio="xMidYMid meet">
<g id="layer101" fill="#8e7970" stroke="none">
<path d="M20 2295 l0 -2275 3740 0 3740 0 0 2275 0 2275 -3740 0 -3740 0 0 -2275z"/>
</g>
<g id="layer102" fill="#4472c4" stroke="none">
<path d="M20 2295 l0 -2275 3740 0 3740 0 0 2275 0 2275 -3740 0 -3740 0 0 -2275z m3426 2024 c3 -6 17 -8 33 -4 24 6 25 5 7 -8 -13 -10 -15 -16 -8 -21 22 -13 12 -26 -20 -26 -25 0 -29 3 -20 12 16 16 15 35 -3 42 -12 4 -15 -3 -15 -34 l0 -39 48 -4 c26 -2 7 -4 -43 -4 -49 -1 -84 1 -77 4 6 2 12 20 12 38 0 18 -6 36 -12 38 -7 3 -2 6 11 6 17 1 22 -3 17 -14 -4 -11 1 -15 17 -14 12 0 17 3 10 6 -10 3 -10 7 0 18 15 17 33 19 43 4z m128 -144 c4 -11 -4 0 -18 24 -28 47 -31 55 -16 46 6 -4 11 13 12 42 1 41 2 39 8 -22 3 -38 10 -79 14 -90z m862 144 c3 -6 17 -8 33 -4 24 6 25 5 7 -8 -13 -10 -15 -16 -8 -21 22 -13 12 -26 -20 -26 -25 0 -29 3 -20 12 16 16 15 35 -3 42 -12 4 -15 -3 -15 -34 l0 -39 48 -4 c26 -2 7 -4 -43 -4 -49 -1 -84 1 -77 4 6 2 12 20 12 38 0 18 -6 36 -12 38 -7 3 -2 6 11 6 17 1 22 -3 17 -14 -4 -11 1 -15 17 -14 12 0 17 3 10 6 -10 3 -10 7 0 18 15 17 33 19 43 4z m170 -59 l64 0 0 29 c0 16 -5 32 -10 34 -6 3 -5 4 2 3 7 -1 14 -19 16 -39 l3 -37 -75 0 -76 0 2 43 1 42 4 -37 4 -38 65 0z m32 31 c-2 -10 -15 -17 -36 -19 -28 -3 -32 0 -32 20 0 22 4 24 36 20 26 -3 34 -9 32 -21z m-938 2 c0 -14 -2 -15 -9 -4 -7 11 -11 9 -21 -8 -6 -13 -9 -29 -6 -37 3 -8 1 -14 -4 -14 -6 0 -10 -11 -10 -25 0 -16 6 -25 15 -25 8 0 15 -5 15 -10 0 -7 -6 -7 -19 0 -11 5 -31 10 -44 10 -24 0 -25 4 -29 60 -3 62 0 66 37 50 19 -8 19 -9 -2 -9 -34 -1 -32 -41 2 -41 16 0 25 6 25 16 0 24 19 54 35 54 8 0 15 -8 15 -17z m950 -73 c0 -17 -7 -20 -45 -20 -38 0 -45 3 -45 20 0 17 7 20 45 20 38 0 45 -3 45 -20z m-1170 -25 c0 -24 -2 -25 -57 -23 l-58 1 55 7 55 7 -52 1 c-40 2 -53 6 -53 17 0 12 13 15 55 15 52 0 55 -1 55 -25z m990 0 c0 -24 -2 -25 -57 -23 l-58 1 55 7 55 7 -52 1 c-40 2 -53 6 -53 17 0 12 13 15 55 15 52 0 55 -1 55 -25z m183 -12 c-24 -2 -43 -9 -43 -16 0 -9 -2 -9 -8 0 -4 6 -25 13 -47 16 -22 2 1 4 50 4 50 0 71 -2 48 -4z m-3624 -317 c-5 -6 -9 -25 -9 -44 0 -44 -18 -38 -48 16 l-23 42 30 0 c22 0 31 5 31 17 0 15 2 14 14 -3 9 -12 11 -23 5 -28z m961 29 c18 -21 8 -48 -20 -55 -32 -8 -32 -32 0 -41 23 -6 22 -7 -7 -8 -30 -1 -33 2 -33 28 0 23 5 30 23 33 14 2 22 10 22 23 0 16 -6 20 -28 18 -15 -1 -25 2 -22 8 9 14 51 11 65 -6z m968 3 c27 -27 -1 -73 -36 -60 -9 3 -13 -2 -10 -14 2 -10 14 -21 28 -25 l25 -7 -27 -1 c-31 -1 -48 22 -48 66 0 32 16 53 40 53 9 0 21 -5 28 -12z m948 -43 c13 -31 24 -58 24 -60 0 -3 -19 -4 -42 -4 -30 2 -35 3 -15 6 32 5 34 20 7 73 -12 23 -16 40 -10 40 6 0 22 -25 36 -55z m981 39 c3 -9 1 -24 -5 -34 -7 -12 -7 -21 0 -28 19 -19 1 -44 -29 -40 -24 3 -28 8 -28 33 0 17 -4 36 -8 43 -12 18 11 42 40 42 13 0 26 -7 30 -16z m962 -16 c23 -40 5 -83 -34 -83 -27 0 -30 3 -30 30 0 25 4 30 28 33 15 2 27 7 27 11 0 15 -30 33 -45 27 -8 -3 -15 -1 -15 5 0 22 54 4 69 -23z m914 25 c-8 -3 -13 -25 -13 -59 0 -57 -14 -70 -40 -39 -11 13 -10 14 4 9 13 -5 16 1 16 39 0 35 -4 47 -17 50 -10 3 0 5 22 5 22 0 34 -2 28 -5z m96 -7 c7 -8 11 -34 9 -58 -3 -37 -6 -43 -27 -46 -43 -6 -66 51 -41 99 13 22 43 25 59 5z m-6529 -255 c14 -26 13 -74 -2 -89 -17 -17 -55 -15 -62 4 -10 26 -7 79 6 92 18 18 46 14 58 -7z m5 -321 c-3 -5 -15 -10 -26 -10 -19 0 -19 -1 2 -29 11 -16 19 -37 17 -47 -4 -22 -45 -31 -61 -15 -9 9 -5 11 13 9 34 -4 37 23 5 60 -14 16 -25 33 -25 36 0 3 18 6 41 6 24 0 38 -4 34 -10z m-6 -374 c-5 -6 -9 -25 -9 -44 0 -44 -18 -38 -48 16 l-23 42 30 0 c22 0 31 5 31 17 0 15 2 14 14 -3 9 -12 11 -23 5 -28z m-1 -308 c27 -27 -1 -73 -36 -60 -9 3 -13 -2 -10 -14 2 -10 14 -21 28 -25 l25 -7 -27 -1 c-31 -1 -48 22 -48 66 0 32 16 53 40 53 9 0 21 -5 28 -12z m2 -333 c7 -8 9 -22 5 -32 -4 -10 -7 -30 -6 -45 2 -25 -1 -28 -29 -28 -33 0 -51 23 -32 42 7 7 7 16 0 28 -25 39 32 71 62 35z m-97 -332 c-8 -3 -13 -25 -13 -59 0 -57 -14 -70 -40 -39 -11 13 -10 14 4 9 13 -5 16 1 16 39 0 35 -4 47 -17 50 -10 3 0 5 22 5 22 0 34 -2 28 -5z m96 -7 c7 -8 11 -34 9 -58 -3 -37 -6 -43 -27 -46 -43 -6 -66 51 -41 99 13 22 43 25 59 5z m-96 -323 c-8 -3 -13 -25 -13 -59 0 -57 -14 -70 -40 -39 -11 13 -10 14 4 9 13 -5 16 1 16 39 0 35 -4 47 -17 50 -10 3 0 5 22 5 22 0 34 -2 28 -5z m102 -3 c-3 -5 -13 -10 -21 -10 -13 0 -12 -6 5 -34 26 -42 19 -66 -20 -66 -16 0 -29 4 -29 8 0 5 10 8 21 8 32 -1 33 17 4 52 -34 40 -32 52 11 52 21 0 33 -4 29 -10z m-97 -337 c-14 -4 -18 -15 -18 -59 0 -57 -14 -70 -40 -39 -11 13 -10 14 4 9 13 -5 16 1 16 39 0 35 -4 47 -17 50 -10 3 2 5 27 5 25 0 37 -2 28 -5z m92 -8 c0 -8 6 -15 13 -16 10 0 10 -2 0 -6 -8 -2 -13 -22 -13 -44 0 -49 -17 -51 -47 -4 -31 46 -30 64 2 57 18 -3 25 0 25 12 0 9 5 16 10 16 6 0 10 -7 10 -15z m-97 -332 c-8 -3 -13 -25 -13 -59 0 -57 -14 -70 -40 -39 -11 13 -10 14 4 9 13 -5 16 1 16 39 0 35 -4 47 -17 50 -10 3 0 5 22 5 22 0 34 -2 28 -5z m105 -30 c3 -31 1 -33 -27 -33 -46 0 -35 -31 14 -43 16 -4 15 -5 -6 -6 -43 -2 -67 46 -49 93 8 22 15 27 38 24 22 -2 28 -8 30 -35z m-105 -300 c-8 -3 -13 -25 -13 -59 0 -57 -14 -70 -40 -39 -11 13 -10 14 4 9 13 -5 16 1 16 39 0 35 -4 47 -17 50 -10 3 0 5 22 5 22 0 34 -2 28 -5z m104 -9 c3 -9 1 -24 -5 -34 -7 -12 -7 -21 0 -28 19 -19 1 -44 -29 -40 -24 3 -28 8 -28 33 0 17 -4 36 -8 43 -12 18 11 42 40 42 13 0 26 -7 30 -16z m-102 -334 c-3 -5 -13 -10 -21 -10 -13 0 -12 -6 5 -34 26 -42 19 -66 -20 -66 -16 0 -29 4 -29 8 0 5 10 8 21 8 32 -1 33 17 4 52 -34 40 -32 52 11 52 21 0 33 -4 29 -10z m94 -4 c7 -8 11 -34 9 -58 -3 -37 -6 -43 -27 -46 -43 -6 -66 51 -41 99 13 22 43 25 59 5z"/>
</g>
<g id="layer103" fill="#ed7d31" stroke="none">
<path d="M20 2295 l0 -2275 3740 0 3740 0 0 2275 0 2275 -3740 0 -3740 0 0 -2275z m3426 2024 c3 -6 17 -8 33 -4 24 6 25 5 7 -8 -13 -10 -15 -16 -8 -21 22 -13 12 -26 -20 -26 -25 0 -29 3 -20 12 16 16 15 35 -3 42 -12 4 -15 -3 -15 -34 l0 -39 48 -4 c26 -2 7 -4 -43 -4 -49 -1 -84 1 -77 4 6 2 12 20 12 38 0 18 -6 36 -12 38 -7 3 -2 6 11 6 17 1 22 -3 17 -14 -4 -11 1 -15 17 -14 12 0 17 3 10 6 -10 3 -10 7 0 18 15 17 33 19 43 4z m128 -144 c4 -11 -4 0 -18 24 -28 47 -31 55 -16 46 6 -4 11 13 12 42 1 41 2 39 8 -22 3 -38 10 -79 14 -90z m862 144 c3 -6 17 -8 33 -4 24 6 25 5 7 -8 -13 -10 -15 -16 -8 -21 22 -13 12 -26 -20 -26 -25 0 -29 3 -20 12 16 16 15 35 -3 42 -12 4 -15 -3 -15 -34 l0 -39 48 -4 c26 -2 7 -4 -43 -4 -49 -1 -84 1 -77 4 6 2 12 20 12 38 0 18 -6 36 -12 38 -7 3 -2 6 11 6 17 1 22 -3 17 -14 -4 -11 1 -15 17 -14 12 0 17 3 10 6 -10 3 -10 7 0 18 15 17 33 19 43 4z m170 -59 l64 0 0 29 c0 16 -5 32 -10 34 -6 3 -5 4 2 3 7 -1 14 -19 16 -39 l3 -37 -75 0 -76 0 2 43 1 42 4 -37 4 -38 65 0z m32 31 c-2 -10 -15 -17 -36 -19 -28 -3 -32 0 -32 20 0 22 4 24 36 20 26 -3 34 -9 32 -21z m-938 2 c0 -14 -2 -15 -9 -4 -7 11 -11 9 -21 -8 -6 -13 -9 -29 -6 -37 3 -8 1 -14 -4 -14 -6 0 -10 -11 -10 -25 0 -16 6 -25 15 -25 8 0 15 -5 15 -10 0 -7 -6 -7 -19 0 -11 5 -31 10 -44 10 -24 0 -25 4 -29 60 -3 62 0 66 37 50 19 -8 19 -9 -2 -9 -34 -1 -32 -41 2 -41 16 0 25 6 25 16 0 24 19 54 35 54 8 0 15 -8 15 -17z m-392 -20 l3 -23 -220 0 c-224 0 -258 6 -215 37 14 10 62 13 224 11 204 -3 205 -3 208 -25z m1342 -53 c0 -17 -7 -20 -45 -20 -38 0 -45 3 -45 20 0 17 7 20 45 20 38 0 45 -3 45 -20z m-1170 -25 c0 -24 -2 -25 -57 -23 l-58 1 55 7 55 7 -52 1 c-40 2 -53 6 -53 17 0 12 13 15 55 15 52 0 55 -1 55 -25z m990 0 c0 -24 -2 -25 -57 -23 l-58 1 55 7 55 7 -52 1 c-40 2 -53 6 -53 17 0 12 13 15 55 15 52 0 55 -1 55 -25z m183 -12 c-24 -2 -43 -9 -43 -16 0 -9 -2 -9 -8 0 -4 6 -25 13 -47 16 -22 2 1 4 50 4 50 0 71 -2 48 -4z m-3624 -317 c-5 -6 -9 -25 -9 -44 0 -44 -18 -38 -48 16 l-23 42 30 0 c22 0 31 5 31 17 0 15 2 14 14 -3 9 -12 11 -23 5 -28z m961 29 c18 -21 8 -48 -20 -55 -32 -8 -32 -32 0 -41 23 -6 22 -7 -7 -8 -30 -1 -33 2 -33 28 0 23 5 30 23 33 14 2 22 10 22 23 0 16 -6 20 -28 18 -15 -1 -25 2 -22 8 9 14 51 11 65 -6z m968 3 c27 -27 -1 -73 -36 -60 -9 3 -13 -2 -10 -14 2 -10 14 -21 28 -25 l25 -7 -27 -1 c-31 -1 -48 22 -48 66 0 32 16 53 40 53 9 0 21 -5 28 -12z m948 -43 c13 -31 24 -58 24 -60 0 -3 -19 -4 -42 -4 -30 2 -35 3 -15 6 32 5 34 20 7 73 -12 23 -16 40 -10 40 6 0 22 -25 36 -55z m981 39 c3 -9 1 -24 -5 -34 -7 -12 -7 -21 0 -28 19 -19 1 -44 -29 -40 -24 3 -28 8 -28 33 0 17 -4 36 -8 43 -12 18 11 42 40 42 13 0 26 -7 30 -16z m962 -16 c23 -40 5 -83 -34 -83 -27 0 -30 3 -30 30 0 25 4 30 28 33 15 2 27 7 27 11 0 15 -30 33 -45 27 -8 -3 -15 -1 -15 5 0 22 54 4 69 -23z m914 25 c-8 -3 -13 -25 -13 -59 0 -57 -14 -70 -40 -39 -11 13 -10 14 4 9 13 -5 16 1 16 39 0 35 -4 47 -17 50 -10 3 0 5 22 5 22 0 34 -2 28 -5z m96 -7 c7 -8 11 -34 9 -58 -3 -37 -6 -43 -27 -46 -43 -6 -66 51 -41 99 13 22 43 25 59 5z m-6529 -255 c14 -26 13 -74 -2 -89 -17 -17 -55 -15 -62 4 -10 26 -7 79 6 92 18 18 46 14 58 -7z m5 -321 c-3 -5 -15 -10 -26 -10 -19 0 -19 -1 2 -29 11 -16 19 -37 17 -47 -4 -22 -45 -31 -61 -15 -9 9 -5 11 13 9 34 -4 37 23 5 60 -14 16 -25 33 -25 36 0 3 18 6 41 6 24 0 38 -4 34 -10z m5552 -227 c38 -27 259 -183 491 -347 295 -209 422 -305 422 -318 0 -11 -7 -18 -18 -18 -10 0 -232 152 -493 338 l-474 337 -480 0 -480 0 -477 -169 -478 -168 -483 -252 -483 -251 -535 6 -534 6 -438 75 c-241 41 -443 80 -450 87 -16 17 14 40 46 34 12 -2 226 -37 475 -78 l453 -75 490 0 490 0 462 242 462 241 500 177 500 178 481 1 481 1 70 -47z m-5558 -147 c-5 -6 -9 -25 -9 -44 0 -44 -18 -38 -48 16 l-23 42 30 0 c22 0 31 5 31 17 0 15 2 14 14 -3 9 -12 11 -23 5 -28z m-1 -308 c27 -27 -1 -73 -36 -60 -9 3 -13 -2 -10 -14 2 -10 14 -21 28 -25 l25 -7 -27 -1 c-31 -1 -48 22 -48 66 0 32 16 53 40 53 9 0 21 -5 28 -12z m2 -333 c7 -8 9 -22 5 -32 -4 -10 -7 -30 -6 -45 2 -25 -1 -28 -29 -28 -33 0 -51 23 -32 42 7 7 7 16 0 28 -25 39 32 71 62 35z m-97 -332 c-8 -3 -13 -25 -13 -59 0 -57 -14 -70 -40 -39 -11 13 -10 14 4 9 13 -5 16 1 16 39 0 35 -4 47 -17 50 -10 3 0 5 22 5 22 0 34 -2 28 -5z m96 -7 c7 -8 11 -34 9 -58 -3 -37 -6 -43 -27 -46 -43 -6 -66 51 -41 99 13 22 43 25 59 5z m-96 -323 c-8 -3 -13 -25 -13 -59 0 -57 -14 -70 -40 -39 -11 13 -10 14 4 9 13 -5 16 1 16 39 0 35 -4 47 -17 50 -10 3 0 5 22 5 22 0 34 -2 28 -5z m102 -3 c-3 -5 -13 -10 -21 -10 -13 0 -12 -6 5 -34 26 -42 19 -66 -20 -66 -16 0 -29 4 -29 8 0 5 10 8 21 8 32 -1 33 17 4 52 -34 40 -32 52 11 52 21 0 33 -4 29 -10z m-97 -337 c-14 -4 -18 -15 -18 -59 0 -57 -14 -70 -40 -39 -11 13 -10 14 4 9 13 -5 16 1 16 39 0 35 -4 47 -17 50 -10 3 2 5 27 5 25 0 37 -2 28 -5z m92 -8 c0 -8 6 -15 13 -16 10 0 10 -2 0 -6 -8 -2 -13 -22 -13 -44 0 -49 -17 -51 -47 -4 -31 46 -30 64 2 57 18 -3 25 0 25 12 0 9 5 16 10 16 6 0 10 -7 10 -15z m-97 -332 c-8 -3 -13 -25 -13 -59 0 -57 -14 -70 -40 -39 -11 13 -10 14 4 9 13 -5 16 1 16 39 0 35 -4 47 -17 50 -10 3 0 5 22 5 22 0 34 -2 28 -5z m105 -30 c3 -31 1 -33 -27 -33 -46 0 -35 -31 14 -43 16 -4 15 -5 -6 -6 -43 -2 -67 46 -49 93 8 22 15 27 38 24 22 -2 28 -8 30 -35z m-105 -300 c-8 -3 -13 -25 -13 -59 0 -57 -14 -70 -40 -39 -11 13 -10 14 4 9 13 -5 16 1 16 39 0 35 -4 47 -17 50 -10 3 0 5 22 5 22 0 34 -2 28 -5z m104 -9 c3 -9 1 -24 -5 -34 -7 -12 -7 -21 0 -28 19 -19 1 -44 -29 -40 -24 3 -28 8 -28 33 0 17 -4 36 -8 43 -12 18 11 42 40 42 13 0 26 -7 30 -16z m-102 -334 c-3 -5 -13 -10 -21 -10 -13 0 -12 -6 5 -34 26 -42 19 -66 -20 -66 -16 0 -29 4 -29 8 0 5 10 8 21 8 32 -1 33 17 4 52 -34 40 -32 52 11 52 21 0 33 -4 29 -10z m94 -4 c7 -8 11 -34 9 -58 -3 -37 -6 -43 -27 -46 -43 -6 -66 51 -41 99 13 22 43 25 59 5z"/>
</g>
<g id="layer104" fill="#fafafa" stroke="none">
<path d="M20 2295 l0 -2275 3740 0 3740 0 0 2275 0 2275 -3740 0 -3740 0 0 -2275z m3426 2024 c3 -6 17 -8 33 -4 24 6 25 5 7 -8 -13 -10 -15 -16 -8 -21 22 -13 12 -26 -20 -26 -25 0 -29 3 -20 12 16 16 15 35 -3 42 -12 4 -15 -3 -15 -34 l0 -39 48 -4 c26 -2 7 -4 -43 -4 -49 -1 -84 1 -77 4 6 2 12 20 12 38 0 18 -6 36 -12 38 -7 3 -2 6 11 6 17 1 22 -3 17 -14 -4 -11 1 -15 17 -14 12 0 17 3 10 6 -10 3 -10 7 0 18 15 17 33 19 43 4z m128 -144 c4 -11 -4 0 -18 24 -28 47 -31 55 -16 46 6 -4 11 13 12 42 1 41 2 39 8 -22 3 -38 10 -79 14 -90z m862 144 c3 -6 17 -8 33 -4 24 6 25 5 7 -8 -13 -10 -15 -16 -8 -21 22 -13 12 -26 -20 -26 -25 0 -29 3 -20 12 16 16 15 35 -3 42 -12 4 -15 -3 -15 -34 l0 -39 48 -4 c26 -2 7 -4 -43 -4 -49 -1 -84 1 -77 4 6 2 12 20 12 38 0 18 -6 36 -12 38 -7 3 -2 6 11 6 17 1 22 -3 17 -14 -4 -11 1 -15 17 -14 12 0 17 3 10 6 -10 3 -10 7 0 18 15 17 33 19 43 4z m170 -59 l64 0 0 29 c0 16 -5 32 -10 34 -6 3 -5 4 2 3 7 -1 14 -19 16 -39 l3 -37 -75 0 -76 0 2 43 1 42 4 -37 4 -38 65 0z m32 31 c-2 -10 -15 -17 -36 -19 -28 -3 -32 0 -32 20 0 22 4 24 36 20 26 -3 34 -9 32 -21z m-938 2 c0 -14 -2 -15 -9 -4 -7 11 -11 9 -21 -8 -6 -13 -9 -29 -6 -37 3 -8 1 -14 -4 -14 -6 0 -10 -11 -10 -25 0 -16 6 -25 15 -25 8 0 15 -5 15 -10 0 -7 -6 -7 -19 0 -11 5 -31 10 -44 10 -24 0 -25 4 -29 60 -3 62 0 66 37 50 19 -8 19 -9 -2 -9 -34 -1 -32 -41 2 -41 16 0 25 6 25 16 0 24 19 54 35 54 8 0 15 -8 15 -17z m-392 -20 l3 -23 -220 0 c-224 0 -258 6 -215 37 14 10 62 13 224 11 204 -3 205 -3 208 -25z m990 0 l3 -23 -220 0 c-224 0 -258 6 -215 37 14 10 62 13 224 11 204 -3 205 -3 208 -25z m352 -53 c0 -17 -7 -20 -45 -20 -38 0 -45 3 -45 20 0 17 7 20 45 20 38 0 45 -3 45 -20z m-1170 -25 c0 -24 -2 -25 -57 -23 l-58 1 55 7 55 7 -52 1 c-40 2 -53 6 -53 17 0 12 13 15 55 15 52 0 55 -1 55 -25z m990 0 c0 -24 -2 -25 -57 -23 l-58 1 55 7 55 7 -52 1 c-40 2 -53 6 -53 17 0 12 13 15 55 15 52 0 55 -1 55 -25z m183 -12 c-24 -2 -43 -9 -43 -16 0 -9 -2 -9 -8 0 -4 6 -25 13 -47 16 -22 2 1 4 50 4 50 0 71 -2 48 -4z m-3624 -317 c-5 -6 -9 -25 -9 -44 0 -44 -18 -38 -48 16 l-23 42 30 0 c22 0 31 5 31 17 0 15 2 14 14 -3 9 -12 11 -23 5 -28z m961 29 c18 -21 8 -48 -20 -55 -32 -8 -32 -32 0 -41 23 -6 22 -7 -7 -8 -30 -1 -33 2 -33 28 0 23 5 30 23 33 14 2 22 10 22 23 0 16 -6 20 -28 18 -15 -1 -25 2 -22 8 9 14 51 11 65 -6z m968 3 c27 -27 -1 -73 -36 -60 -9 3 -13 -2 -10 -14 2 -10 14 -21 28 -25 l25 -7 -27 -1 c-31 -1 -48 22 -48 66 0 32 16 53 40 53 9 0 21 -5 28 -12z m948 -43 c13 -31 24 -58 24 -60 0 -3 -19 -4 -42 -4 -30 2 -35 3 -15 6 32 5 34 20 7 73 -12 23 -16 40 -10 40 6 0 22 -25 36 -55z m981 39 c3 -9 1 -24 -5 -34 -7 -12 -7 -21 0 -28 19 -19 1 -44 -29 -40 -24 3 -28 8 -28 33 0 17 -4 36 -8 43 -12 18 11 42 40 42 13 0 26 -7 30 -16z m962 -16 c23 -40 5 -83 -34 -83 -27 0 -30 3 -30 30 0 25 4 30 28 33 15 2 27 7 27 11 0 15 -30 33 -45 27 -8 -3 -15 -1 -15 5 0 22 54 4 69 -23z m914 25 c-8 -3 -13 -25 -13 -59 0 -57 -14 -70 -40 -39 -11 13 -10 14 4 9 13 -5 16 1 16 39 0 35 -4 47 -17 50 -10 3 0 5 22 5 22 0 34 -2 28 -5z m96 -7 c7 -8 11 -34 9 -58 -3 -37 -6 -43 -27 -46 -43 -6 -66 51 -41 99 13 22 43 25 59 5z m-6529 -255 c14 -26 13 -74 -2 -89 -17 -17 -55 -15 -62 4 -10 26 -7 79 6 92 18 18 46 14 58 -7z m5 -321 c-3 -5 -15 -10 -26 -10 -19 0 -19 -1 2 -29 11 -16 19 -37 17 -47 -4 -22 -45 -31 -61 -15 -9 9 -5 11 13 9 34 -4 37 23 5 60 -14 16 -25 33 -25 36 0 3 18 6 41 6 24 0 38 -4 34 -10z m5552 -227 c38 -27 259 -183 491 -347 295 -209 422 -305 422 -318 0 -11 -7 -18 -18 -18 -10 0 -232 152 -493 338 l-474 337 -480 0 -480 0 -477 -169 -478 -168 -483 -252 -483 -251 -535 6 -534 6 -438 75 c-241 41 -443 80 -450 87 -16 17 14 40 46 34 12 -2 226 -37 475 -78 l453 -75 490 0 490 0 462 242 462 241 500 177 500 178 481 1 481 1 70 -47z m-5558 -147 c-5 -6 -9 -25 -9 -44 0 -44 -18 -38 -48 16 l-23 42 30 0 c22 0 31 5 31 17 0 15 2 14 14 -3 9 -12 11 -23 5 -28z m-1 -308 c27 -27 -1 -73 -36 -60 -9 3 -13 -2 -10 -14 2 -10 14 -21 28 -25 l25 -7 -27 -1 c-31 -1 -48 22 -48 66 0 32 16 53 40 53 9 0 21 -5 28 -12z m2 -333 c7 -8 9 -22 5 -32 -4 -10 -7 -30 -6 -45 2 -25 -1 -28 -29 -28 -33 0 -51 23 -32 42 7 7 7 16 0 28 -25 39 32 71 62 35z m-97 -332 c-8 -3 -13 -25 -13 -59 0 -57 -14 -70 -40 -39 -11 13 -10 14 4 9 13 -5 16 1 16 39 0 35 -4 47 -17 50 -10 3 0 5 22 5 22 0 34 -2 28 -5z m96 -7 c7 -8 11 -34 9 -58 -3 -37 -6 -43 -27 -46 -43 -6 -66 51 -41 99 13 22 43 25 59 5z m4261 -416 l275 -94 340 -236 c187 -131 401 -280 476 -332 l135 -95 478 418 c300 263 483 416 492 412 8 -3 14 -13 14 -22 0 -24 -955 -856 -983 -856 -17 1 -387 253 -932 636 -26 19 -203 83 -514 189 -260 88 -474 160 -475 160 -1 0 -215 -223 -476 -495 -261 -272 -482 -497 -490 -499 -8 -3 -224 -41 -480 -87 -405 -71 -471 -81 -510 -72 -74 17 -950 319 -963 332 -9 10 -8 15 6 26 16 12 46 4 230 -59 117 -40 335 -115 485 -166 l274 -93 441 77 c243 43 458 82 477 88 28 7 118 97 450 444 228 239 445 464 481 499 l67 65 213 -74 c118 -40 338 -115 489 -166z m-4357 93 c-8 -3 -13 -25 -13 -59 0 -57 -14 -70 -40 -39 -11 13 -10 14 4 9 13 -5 16 1 16 39 0 35 -4 47 -17 50 -10 3 0 5 22 5 22 0 34 -2 28 -5z m102 -3 c-3 -5 -13 -10 -21 -10 -13 0 -12 -6 5 -34 26 -42 19 -66 -20 -66 -16 0 -29 4 -29 8 0 5 10 8 21 8 32 -1 33 17 4 52 -34 40 -32 52 11 52 21 0 33 -4 29 -10z m-97 -337 c-14 -4 -18 -15 -18 -59 0 -57 -14 -70 -40 -39 -11 13 -10 14 4 9 13 -5 16 1 16 39 0 35 -4 47 -17 50 -10 3 2 5 27 5 25 0 37 -2 28 -5z m92 -8 c0 -8 6 -15 13 -16 10 0 10 -2 0 -6 -8 -2 -13 -22 -13 -44 0 -49 -17 -51 -47 -4 -31 46 -30 64 2 57 18 -3 25 0 25 12 0 9 5 16 10 16 6 0 10 -7 10 -15z m-97 -332 c-8 -3 -13 -25 -13 -59 0 -57 -14 -70 -40 -39 -11 13 -10 14 4 9 13 -5 16 1 16 39 0 35 -4 47 -17 50 -10 3 0 5 22 5 22 0 34 -2 28 -5z m105 -30 c3 -31 1 -33 -27 -33 -46 0 -35 -31 14 -43 16 -4 15 -5 -6 -6 -43 -2 -67 46 -49 93 8 22 15 27 38 24 22 -2 28 -8 30 -35z m-105 -300 c-8 -3 -13 -25 -13 -59 0 -57 -14 -70 -40 -39 -11 13 -10 14 4 9 13 -5 16 1 16 39 0 35 -4 47 -17 50 -10 3 0 5 22 5 22 0 34 -2 28 -5z m104 -9 c3 -9 1 -24 -5 -34 -7 -12 -7 -21 0 -28 19 -19 1 -44 -29 -40 -24 3 -28 8 -28 33 0 17 -4 36 -8 43 -12 18 11 42 40 42 13 0 26 -7 30 -16z m-102 -334 c-3 -5 -13 -10 -21 -10 -13 0 -12 -6 5 -34 26 -42 19 -66 -20 -66 -16 0 -29 4 -29 8 0 5 10 8 21 8 32 -1 33 17 4 52 -34 40 -32 52 11 52 21 0 33 -4 29 -10z m94 -4 c7 -8 11 -34 9 -58 -3 -37 -6 -43 -27 -46 -43 -6 -66 51 -41 99 13 22 43 25 59 5z"/>
<path d="M3380 4250 c0 -5 7 -10 15 -10 8 0 15 5 15 10 0 6 -7 10 -15 10 -8 0 -15 -4 -15 -10z"/>
<path d="M4370 4250 c0 -5 7 -10 15 -10 8 0 15 5 15 10 0 6 -7 10 -15 10 -8 0 -15 -4 -15 -10z"/>
<path d="M4580 4290 c0 -5 11 -10 25 -10 14 0 25 5 25 10 0 6 -11 10 -25 10 -14 0 -25 -4 -25 -10z"/>
<path d="M3602 4213 c5 -26 38 -29 38 -4 0 15 -6 21 -21 21 -14 0 -19 -5 -17 -17z"/>
<path d="M4570 4220 c0 -5 16 -10 35 -10 19 0 35 5 35 10 0 6 -16 10 -35 10 -19 0 -35 -4 -35 -10z"/>
<path d="M3403 4203 c15 -2 37 -2 50 0 12 2 0 4 -28 4 -27 0 -38 -2 -22 -4z"/>
<path d="M4393 4203 c15 -2 37 -2 50 0 12 2 0 4 -28 4 -27 0 -38 -2 -22 -4z"/>
<path d="M979 3853 c27 -47 31 -49 31 -15 0 26 -4 32 -20 32 -17 0 -19 -3 -11 -17z"/>
<path d="M2917 3894 c-16 -16 -7 -44 14 -44 15 0 20 5 17 22 -3 22 -19 33 -31 22z"/>
<path d="M4834 3889 c-9 -16 12 -33 31 -25 14 5 15 9 5 21 -15 18 -26 19 -36 4z"/>
<path d="M4841 3826 c-12 -14 -5 -26 16 -26 15 0 18 26 4 34 -5 3 -14 0 -20 -8z"/>
<path d="M5797 3837 c-3 -8 -2 -20 3 -27 11 -18 42 -4 38 17 -4 22 -34 29 -41 10z"/>
<path d="M6823 3893 c-20 -7 -17 -82 3 -90 19 -7 34 13 34 48 0 29 -18 49 -37 42z"/>
<path d="M279 3626 c-9 -20 -9 -32 0 -52 17 -38 36 -24 36 26 0 50 -19 64 -36 26z"/>
<path d="M279 2933 c27 -47 31 -49 31 -15 0 26 -4 32 -20 32 -17 0 -19 -3 -11 -17z"/>
<path d="M287 2634 c-16 -16 -7 -44 14 -44 15 0 20 5 17 22 -3 22 -19 33 -31 22z"/>
<path d="M287 2304 c-14 -14 -7 -35 11 -32 9 2 17 10 17 17 0 16 -18 25 -28 15z"/>
<path d="M285 2240 c-10 -17 12 -37 25 -24 8 8 6 15 -4 23 -10 9 -16 9 -21 1z"/>
<path d="M293 1963 c-20 -7 -17 -82 3 -90 19 -7 34 13 34 48 0 29 -18 49 -37 42z"/>
<path d="M280 1263 c0 -5 7 -17 15 -27 14 -19 15 -19 15 7 0 17 -5 27 -15 27 -8 0 -15 -3 -15 -7z"/>
<path d="M291 946 c-14 -17 -7 -36 14 -36 22 0 29 20 13 36 -13 13 -16 13 -27 0z"/>
<path d="M284 619 c-9 -16 12 -33 31 -25 14 5 15 9 5 21 -15 18 -26 19 -36 4z"/>
<path d="M291 556 c-12 -14 -5 -26 16 -26 15 0 18 26 4 34 -5 3 -14 0 -20 -8z"/>
<path d="M293 283 c-20 -7 -17 -82 3 -90 19 -7 34 13 34 48 0 29 -18 49 -37 42z"/>
</g>


</svg>